<?xml version="1.0" encoding="utf-8"?>
<!-- Generator: Adobe Illustrator 27.5.0, SVG Export Plug-In . SVG Version: 6.00 Build 0)  -->
<svg version="1.1" xmlns="http://www.w3.org/2000/svg" xmlns:xlink="http://www.w3.org/1999/xlink" x="0px" y="0px"
	 viewBox="0 0 750 500" style="enable-background:new 0 0 750 500;" xml:space="preserve">
<g id="BACKGROUND">
</g>
<g id="OBJECTS">
	<g>
		<defs>
			<rect id="SVGID_1_" width="750" height="500"/>
		</defs>
		<clipPath id="SVGID_00000040555133636663762330000016243151249684779163_">
			<use xlink:href="#SVGID_1_"  style="overflow:visible;"/>
		</clipPath>
		
			<rect style="clip-path:url(#SVGID_00000040555133636663762330000016243151249684779163_);fill:#F5F5EB;" width="750" height="500"/>
		<g style="clip-path:url(#SVGID_00000040555133636663762330000016243151249684779163_);">
			<path style="fill:none;stroke:#EBE4D8;stroke-width:32;stroke-miterlimit:10;" d="M20.215,222.253
				c-23.906,0-47.111-4.688-68.969-13.933c-21.1-8.924-40.044-21.696-56.306-37.958c-16.263-16.262-29.034-35.206-37.958-56.306
				c-9.245-21.858-13.933-45.063-13.933-68.969c0-23.906,4.688-47.111,13.933-68.969c8.924-21.1,21.695-40.044,37.958-56.307
				c16.263-16.263,35.207-29.034,56.307-37.958c21.858-9.245,45.063-13.933,68.969-13.933c23.906,0,47.111,4.688,68.969,13.933
				c21.1,8.925,40.044,21.696,56.307,37.958c16.262,16.263,29.034,35.207,37.958,56.307c9.245,21.858,13.933,45.063,13.933,68.969
				c0,23.906-4.688,47.111-13.933,68.969c-8.924,21.1-21.695,40.044-37.958,56.306c-16.262,16.263-35.207,29.034-56.307,37.958
				C67.326,217.566,44.122,222.253,20.215,222.253z M20.215-82.151c-33.986,0-65.939,13.235-89.97,37.267
				c-24.032,24.032-37.267,55.984-37.267,89.971c0,33.986,13.235,65.939,37.267,89.97c24.032,24.032,55.984,37.267,89.97,37.267
				c33.986,0,65.938-13.235,89.97-37.267c24.032-24.032,37.267-55.984,37.267-89.97c0-33.987-13.235-65.939-37.267-89.971
				C86.154-68.916,54.202-82.151,20.215-82.151z"/>
		</g>
		<path style="clip-path:url(#SVGID_00000040555133636663762330000016243151249684779163_);fill:#FFFFFF;" d="M883.971,250.576
			H666.188c-3.05,0-5.523-2.473-5.523-5.523l0,0c0-3.05,2.473-5.523,5.523-5.523h217.783c3.051,0,5.523,2.473,5.523,5.523l0,0
			C889.494,248.103,887.021,250.576,883.971,250.576z"/>
		<path style="clip-path:url(#SVGID_00000040555133636663762330000016243151249684779163_);fill:#EDDCD1;" d="M786.604,25.36
			H242.501c-14.054,0-25.447-11.393-25.447-25.447v0c0-14.054,11.393-25.447,25.447-25.447h544.103
			c14.054,0,25.447,11.393,25.447,25.447v0C812.051,13.967,800.658,25.36,786.604,25.36z"/>
		<path style="clip-path:url(#SVGID_00000040555133636663762330000016243151249684779163_);fill:#F0E0C7;" d="M755.353,150.688
			H648.981c-10.895,0-19.727-8.832-19.727-19.726l0,0c0-10.895,8.832-19.726,19.727-19.726h106.372
			c10.895,0,19.726,8.832,19.726,19.726l0,0C775.08,141.856,766.248,150.688,755.353,150.688z"/>
		<path style="clip-path:url(#SVGID_00000040555133636663762330000016243151249684779163_);fill:#F0E0C7;" d="M53.186,394.654
			H-53.186c-10.895,0-19.727-8.832-19.727-19.726v0c0-10.895,8.832-19.726,19.727-19.726H53.186
			c10.895,0,19.726,8.832,19.726,19.726v0C72.912,385.822,64.081,394.654,53.186,394.654z"/>
		<g style="clip-path:url(#SVGID_00000040555133636663762330000016243151249684779163_);">
			<path style="fill:#F0E0C7;" d="M746.288,566.025c-8.164,0.056-16.099-1.491-23.585-4.597
				c-7.227-2.998-13.726-7.315-19.317-12.831c-5.592-5.516-9.997-11.955-13.094-19.14c-3.208-7.443-4.863-15.356-4.919-23.52
				c-0.056-8.164,1.491-16.099,4.597-23.586c2.998-7.226,7.315-13.726,12.831-19.318c5.516-5.592,11.955-9.997,19.14-13.094
				c7.443-3.208,15.356-4.863,23.52-4.919c8.164-0.056,16.099,1.491,23.586,4.597c7.227,2.998,13.726,7.315,19.318,12.831
				c5.592,5.516,9.997,11.955,13.094,19.14c3.208,7.443,4.863,15.356,4.919,23.52c0.056,8.164-1.491,16.099-4.597,23.586
				c-2.998,7.227-7.315,13.726-12.831,19.317c-5.516,5.592-11.955,9.997-19.14,13.094
				C762.365,564.315,754.452,565.969,746.288,566.025z M745.576,462.072c-11.606,0.079-22.487,4.674-30.638,12.937
				c-8.151,8.263-12.596,19.206-12.516,30.812c0.08,11.606,4.674,22.487,12.937,30.638c8.263,8.151,19.206,12.596,30.812,12.516
				c11.606-0.08,22.487-4.674,30.637-12.937c8.151-8.263,12.596-19.206,12.516-30.812c-0.079-11.606-4.674-22.487-12.937-30.638
				C768.125,466.437,757.182,461.992,745.576,462.072z"/>
		</g>
		<path style="clip-path:url(#SVGID_00000040555133636663762330000016243151249684779163_);fill:#F0E0C7;" d="M273.925,466.068
			H-8.144c-3.05,0-5.523-2.473-5.523-5.523l0,0c0-3.051,2.473-5.523,5.523-5.523h282.069c3.05,0,5.523,2.473,5.523,5.523l0,0
			C279.448,463.595,276.976,466.068,273.925,466.068z"/>
		
			<path style="clip-path:url(#SVGID_00000040555133636663762330000016243151249684779163_);fill:none;stroke:#F8F8F8;stroke-width:2;stroke-miterlimit:10;" d="
			M760.702,45.086h-471.53c-10.895,0-19.726-8.832-19.726-19.726l0,0c0-10.895,8.832-19.726,19.726-19.726h471.53
			c10.895,0,19.726,8.832,19.726,19.726l0,0C780.428,36.254,771.596,45.086,760.702,45.086z"/>
		
			<ellipse transform="matrix(0.7071 -0.7071 0.7071 0.7071 -135.1031 673.8322)" style="clip-path:url(#SVGID_00000040555133636663762330000016243151249684779163_);fill:none;stroke:#FFFFFF;stroke-width:2;stroke-miterlimit:10;" cx="745.836" cy="500" rx="112.798" ry="112.798"/>
		
			<ellipse transform="matrix(0.7071 -0.7071 0.7071 0.7071 -135.1031 673.8322)" style="clip-path:url(#SVGID_00000040555133636663762330000016243151249684779163_);fill:none;stroke:#EBE4D8;stroke-width:32;stroke-miterlimit:10;" cx="745.836" cy="500" rx="142.154" ry="142.154"/>
		<path style="clip-path:url(#SVGID_00000040555133636663762330000016243151249684779163_);fill:#EDDCD1;" d="M74.162,84.135
			h-183.861c-5.425,0-9.863-4.438-9.863-9.863l0,0c0-5.425,4.438-9.863,9.863-9.863H74.162c5.425,0,9.863,4.438,9.863,9.863l0,0
			C84.025,79.697,79.587,84.135,74.162,84.135z"/>
		
			<circle style="clip-path:url(#SVGID_00000040555133636663762330000016243151249684779163_);fill:none;stroke:#FDFDFD;stroke-width:2;stroke-miterlimit:10;" cx="625.564" cy="130.961" r="39.454"/>
		
			<ellipse transform="matrix(0.1637 -0.9865 0.9865 0.1637 -328.934 533.0748)" style="clip-path:url(#SVGID_00000040555133636663762330000016243151249684779163_);fill:none;stroke:#FFFFFF;stroke-width:2;stroke-miterlimit:10;" cx="149.943" cy="460.544" rx="69.029" ry="69.03"/>
		
			<ellipse transform="matrix(0.225 -0.9744 0.9744 0.225 -204.1032 255.1729)" style="clip-path:url(#SVGID_00000040555133636663762330000016243151249684779163_);fill:none;stroke:#FFFFFF;stroke-width:2;stroke-miterlimit:10;" cx="58.35" cy="255.886" rx="49.566" ry="49.566"/>
		
			<ellipse transform="matrix(0.2276 -0.9738 0.9738 0.2276 -204.1004 254.4772)" style="clip-path:url(#SVGID_00000040555133636663762330000016243151249684779163_);fill:#F0E0C7;" cx="58.35" cy="255.886" rx="22.564" ry="22.564"/>
		
			<circle style="clip-path:url(#SVGID_00000040555133636663762330000016243151249684779163_);fill:#FFFFFF;" cx="625.564" cy="130.961" r="11.927"/>
		<path style="clip-path:url(#SVGID_00000040555133636663762330000016243151249684779163_);fill:#FFFFFF;" d="M418.253,438.683
			H-8.144c-3.05,0-5.523-2.473-5.523-5.523l0,0c0-3.05,2.473-5.523,5.523-5.523h426.397c3.05,0,5.523,2.473,5.523,5.523l0,0
			C423.776,436.21,421.303,438.683,418.253,438.683z"/>
	</g>
</g>
</svg>
